<svg xmlns="http://www.w3.org/2000/svg" viewBox="0 0 483 527.48"><defs><style>.cls-1{fill:#66023d;}.cls-2{fill:#fbfbfb;}.cls-2,.cls-48,.cls-49,.cls-50{stroke:#000;}.cls-2,.cls-47,.cls-48,.cls-49{stroke-miterlimit:10;}.cls-3{fill:#301a0f;}.cls-4{fill:#2f1a11;}.cls-5{fill:#2e1a11;}.cls-6{fill:#2f1910;}.cls-7{fill:#2d1912;}.cls-8{fill:#2e1813;}.cls-9{fill:#24020a;}.cls-10{fill:#2a1810;}.cls-11{fill:#2b1810;}.cls-12{fill:#0c0202;}.cls-13{fill:#180a05;}.cls-14{fill:#170602;}.cls-15{fill:#130500;}.cls-16{fill:#150401;}.cls-17{fill:#170607;}.cls-18{fill:#39141a;}.cls-19{fill:#180601;}.cls-20{fill:#130401;}.cls-21{fill:#290411;}.cls-22{fill:#140002;}.cls-23{fill:#150702;}.cls-24{fill:#1d0b07;}.cls-25{fill:#2b0612;}.cls-26{fill:#2a070e;}.cls-27{fill:#2a0710;}.cls-28{fill:#2c070e;}.cls-29{fill:#25080d;}.cls-30{fill:#120400;}.cls-31{fill:#2a0511;}.cls-32{fill:#130201;}.cls-33{fill:#2c0415;}.cls-34{fill:#140200;}.cls-35{fill:#160402;}.cls-36{fill:#26030d;}.cls-37{fill:#737373;}.cls-38{fill:#301d16;}.cls-39{fill:#311e17;}.cls-40{fill:#25020b;}.cls-41{fill:#140001;}.cls-42{fill:#31190f;}.cls-43{fill:#140600;}.cls-44{fill:#1c0b02;}.cls-45{fill:#1c0a03;}.cls-46{fill:#160701;}.cls-47,.cls-49,.cls-50{fill:none;}.cls-47{stroke:#1c0b02;}.cls-48{fill:#fff;}.cls-50{stroke-width:3px;}</style></defs><title>House Dayne Alternate 2</title><g id="Layer_2" data-name="Layer 2"><path class="cls-1" d="M927,122.76V328.6a313.88,313.88,0,0,1-2.28,38c-.11.93-.24,1.86-.36,2.79,0,.2,0,.4-.08.59-.09.74-.19,1.47-.31,2.2-.46,3.37-1,6.69-1.6,10-.07.44-.15.87-.23,1.31-.16.8-.29,1.6-.45,2.4s-.34,1.79-.51,2.69l-.45,2.22-.24,1.15c-.15.71-.3,1.44-.46,2.15-.54,2.37-1.07,4.71-1.61,7l-.58,2.32-.52,2q-1.53,5.88-3.27,11.61c-.29,1-.59,1.94-.9,2.92l-.6,1.88c-.2.63-.4,1.24-.61,1.86-.37,1.09-.73,2.17-1.1,3.25s-.68,2-1,3c-.47,1.28-.93,2.56-1.39,3.81-.36,1-.73,2-1.11,3l-.19.5c-.43,1.14-.87,2.25-1.32,3.36s-.87,2.17-1.31,3.2c0,.15-.12.28-.18.42-.4,1-.8,2-1.25,3s-.76,1.75-1.13,2.62l-.66,1.49c-.48,1.07-1,2.11-1.44,3.15s-.9,2-1.36,2.93l-1,2.12c-.29.63-.6,1.25-.91,1.87-.63,1.33-1.31,2.64-2,4q-2.52,5-5.19,9.77l-2,3.57-.12.21c-1.4,2.44-2.82,4.86-4.28,7.24a.41.41,0,0,1,0,.09c-.71,1.2-1.46,2.4-2.18,3.54-.11.16-.2.32-.3.47s-.31.5-.47.74c-.4.64-.81,1.28-1.22,1.92l-.65,1c-.65,1-1.31,2-2,3l-.13.18c-.65,1-1.31,2-2,3l-.45.67q-2.25,3.29-4.54,6.46l-.31.43c-.8,1.07-1.54,2.14-2.31,3.19s-1.66,2.23-2.5,3.32c-1.52,2-3.06,4-4.61,6l-.81,1q-1.09,1.39-2.22,2.76L854,526.61l-.57.69c-.4.47-.79.93-1.2,1.39a4.16,4.16,0,0,1-.27.32c-.31.37-.62.73-.94,1.09-1.23,1.44-2.46,2.87-3.73,4.29-.65.75-1.32,1.5-2,2.24s-1.52,1.69-2.29,2.51-1.47,1.6-2.22,2.4q-3,3.2-5.93,6.24-2.76,2.82-5.53,5.59l-.83.82c-.64.64-1.29,1.27-1.93,1.89-.92.89-1.85,1.78-2.79,2.66l-2.28,2.12c-.68.65-1.36,1.28-2,1.91q-14.52,13.32-30.16,25.31c-1,.77-2,1.52-3,2.28q-9.86,7.43-20.1,14.31-1.56,1.05-3.12,2.07c-1,.65-2,1.29-3,1.92a0,0,0,0,1,0,0l-.18.12h0l-2.24,1.45c-.86.55-1.72,1.1-2.57,1.6l-1.74,1.09c-3.67,2.31-7.25,4.48-10.73,6.54l-2.41,1.4-2.36,1.37-2.33,1.34-2.23,1.29c-8.34,4.68-15.9,8.59-22.38,11.76l-1.6.8c-10.64,5.15-18.12,8.22-21,9.35l-.42.17-.61.24-.14,0h-.08l-.23-.09-.21,0-1.07-.42-.54-.23c-.87-.34-2-.8-3.37-1.38l-.46-.18c-1.76-.8-3.89-1.67-6.33-2.77l-1.39-.61a442.25,442.25,0,0,1-39.75-20.6c-.8-.44-1.6-.92-2.35-1.38q-7.23-4.26-14.29-8.78-5.26-3.36-10.42-6.85c-.75-.51-1.49-1-2.23-1.53-.57-.38-1.13-.76-1.69-1.16q-8.21-5.66-16.15-11.66l-2.63-2-.61-.47c-.77-.6-1.55-1.2-2.33-1.82l-2.37-1.86-.44-.35c-6.19-4.92-12.43-10.15-18.64-15.69L558.08,566q-2.31-2.05-4.59-4.2l-1.67-1.57L550,558.54l-2-1.94c-1.12-1.07-2.23-2.17-3.33-3.27-.85-.79-1.69-1.66-2.52-2.5l-.24-.26c-.84-.83-1.67-1.67-2.5-2.51l-.34-.36c-.55-.56-1.09-1.12-1.63-1.69l-1-1.06-1-1-.13-.15-2.1-2.25c-1.12-1.2-2.24-2.41-3.34-3.64h0c-1.11-1.23-2.21-2.46-3.31-3.71l-1.31-1.5-.74-.84c-.57-.65-1.12-1.29-1.66-1.94q-1-1.2-2-2.4-4.28-5.1-8.39-10.48c-.76-1-1.5-1.93-2.24-2.92-1.89-2.47-3.73-5-5.57-7.55-.55-.8-1.12-1.59-1.68-2.39-.13-.16-.24-.34-.36-.5-.59-.86-1.19-1.7-1.77-2.56l-1.54-2.28a1,1,0,0,1-.12-.17c-.39-.57-.77-1.14-1.15-1.72s-.79-1.17-1.18-1.77l-1-1.54a1,1,0,0,0-.15-.24l-2.22-3.48-.22-.36-.88-1.43-1.22-2-.32-.53c-.17-.27-.34-.56-.51-.85-.46-.76-.94-1.56-1.38-2.33l-.64-1.1c-.5-.84-1-1.67-1.49-2.57q-4.61-8-8.77-16.46c-.35-.69-.69-1.38-1-2.09-.22-.44-.44-.88-.65-1.35-.43-.87-.8-1.74-1.25-2.63a25.91,25.91,0,0,1-1.15-2.47l-.23-.48c-.27-.58-.53-1.16-.81-1.75l-.26-.57c-.27-.59-.52-1.19-.8-1.78q-1.44-3.25-2.79-6.57c-.42-1-.8-2-1.23-3.08-.1-.25-.21-.52-.31-.79-.4-1-.8-2-1.16-3s-.69-1.82-1-2.74l-.24-.65c-.17-.44-.33-.91-.49-1.35q-1-2.7-1.9-5.44c-.21-.6-.4-1.2-.6-1.8-.26-.8-.51-1.54-.75-2.32-.14-.41-.27-.8-.4-1.22-.25-.8-.49-1.59-.75-2.39-.31-1-.61-2.06-.92-3.11-.19-.64-.39-1.28-.57-1.95-.37-1.29-.74-2.58-1.09-3.89-.19-.68-.37-1.35-.55-2-.13-.5-.27-1-.4-1.51-.32-1.22-.62-2.45-.92-3.7-.18-.7-.34-1.4-.52-2.11-.07-.28-.13-.56-.19-.85-.37-1.55-.72-3.11-1.07-4.69-.26-1.16-.5-2.33-.74-3.5-.13-.71-.29-1.43-.42-2.14s-.32-1.59-.48-2.45a1.86,1.86,0,0,0-.09-.47c-.16-.8-.3-1.64-.45-2.48s-.32-1.84-.48-2.77-.29-1.8-.45-2.71q-.57-3.7-1.07-7.47c-.17-1.23-.33-2.47-.48-3.71A312.7,312.7,0,0,1,447,328.58V122.76Z" transform="translate(-445.5 -121.26)"/></g><g id="Layer_4" data-name="Layer 4"><polyline class="cls-2" points="254.15 127.51 254.15 453.62 241.65 466.12 229.59 454.06 229.59 126.12"/><path class="cls-3" d="M617.31,243.5c-1.65-4,1.83-4.68,4-5.49a39.48,39.48,0,0,1,13.46-2.26c12.35-.09,24.71,0,37.07,0,2.2,0,4.45.28,6.38-1.19a103.82,103.82,0,0,1,18,0c1.93,1.41,4.17,1.17,6.36,1.17,12.66,0,25.33-.05,38,0a41.63,41.63,0,0,1,13.29,2.14c3.17,2.58,3.53,5.36.57,8.37A73.82,73.82,0,0,1,743,248.88c-2.83-.92-5.63-.38-8.45.11a14,14,0,0,1-3.7-.24,279.42,279.42,0,0,0-34.6.14,37,37,0,0,1-7.06,0c-15.81-1.23-31.65-1-47.48-.82a17.71,17.71,0,0,1-1.88.38,42,42,0,0,0-8.34-.54c-1.78-.41-3.66-.26-5.37-1h0A40.4,40.4,0,0,1,617.31,243.5Z" transform="translate(-445.5 -121.26)"/><path class="cls-4" d="M696.09,180.2v2.25c-1.84,1.19-4,0-6.94,1.13,2.82-.65,4.62-1.07,6.26.26a60.73,60.73,0,0,1-.06,9.53c-2.16,1.23-4.32.73-6,.57,1.76,1,4.53-.64,6.77.71l0,2.25c-2.72,4.3-7.37,3.19-11.31,4a9.53,9.53,0,0,1-1.67.34c-1.75,0-3.53.11-4.11-2.12.41-3-.43-6,.3-9,1.22-.63,2.7-.57,3.81-1.47a68.1,68.1,0,0,1,7.75,0c-3-.23-5.18-.12-7.33-.12-1.76.47-3.64,2.19-5.07-.51l0-3.37c1.4-1.49,3-.82,4.66-.46-4.41-1-3.06-4.17-2.79-7,4.23-2.59,8.77-.23,13.15-.75C695.28,176.28,695.25,178.89,696.09,180.2Z" transform="translate(-445.5 -121.26)"/><path class="cls-5" d="M696.11,232.41a6,6,0,0,1,0,1.1c-4.51,2.2-9.27.88-13.92.9-2.5,0-2.72-2.6-3.78-4.2l0-2.26a14.3,14.3,0,0,1,9-2.17c-2.71-1.28-5.87,2.19-9,0l0-3.34c5.33-2.38,10.75-3.77,16.51-1.55,1.32,2.6.34,5.39.66,8.06C695.64,230.1,693.35,231.65,696.11,232.41Z" transform="translate(-445.5 -121.26)"/><path class="cls-6" d="M678.43,209.13v-3.4c5.57-1.64,11.18-2.64,16.93-.93,0,3.07,1.05,6.23-.68,9.19-1.88,1.28-4.2.88-6.21,1.66-3.36-.16-7,2.69-10-1l0-3.37c.56-.71,1.39-.49,2.12-.61A2.85,2.85,0,0,1,678.43,209.13Z" transform="translate(-445.5 -121.26)"/><path class="cls-7" d="M679.38,174.76l-1-2.3a26.28,26.28,0,0,1-3.85-6.33c.22-2.78-1-6,2.34-7.82a5.65,5.65,0,0,1,2.56-.33c1.57.26,3.2,1.07,2.83,2.71-.93,4.11,2,6.72,3.32,10,.07.91-1.09.78-1.27,1.49a1.06,1.06,0,0,1,1-.06c4,1.26,4-2.88,6-4.43,2.93-2,2.5-4.8,1.89-7.66a2.87,2.87,0,0,1,.69-2.16c2.18-.17,4.43-.45,4.5,2.78-1.16,2.33-.8,4.78-.57,7.22-.46,2.78-3.18,4.31-3.85,7C689,178.61,684.22,176.22,679.38,174.76Z" transform="translate(-445.5 -121.26)"/><path class="cls-8" d="M697.22,160.26c-.21-.74-.21-.74-3.32-2.23-1.91.57-2.48-1.91-4.18-1.82a15,15,0,0,0-6.28.61,6.65,6.65,0,0,0-4,2.32h-2.24a2.66,2.66,0,0,1-1.08-2.22l4.48-4.33c1.66.41,2.91-.74,4.36-1.16,2.84.21,5.67-.59,8.49,1.1,9,5.37,9.92,12,2.62,21.05a1.43,1.43,0,0,1-2.17,0c-.78-3,2.25-3.71,3.28-5.62A12.42,12.42,0,0,1,697.22,160.26Z" transform="translate(-445.5 -121.26)"/><path class="cls-9" d="M705,249c-2,0-3.89.09-5.57,1.27v-.08c-6.32-1.44-12.73,0-19.08-.61-2.17-.21-4.4.43-6.53-.45L639.49,249q-.55-.34-.36-.67c.12-.22.24-.34.37-.34l1.13,0c8.39-1.16,16.82-.45,25.23-.45,7.86,0,15.74-.73,23.58.44h6.71c2.75-1,5.59-.36,8.39-.42A1,1,0,0,1,705,249Z" transform="translate(-445.5 -121.26)"/><path class="cls-10" d="M678.44,220.25l0-3.39c3.26-1.44,6.9-.59,10.23-1.68,2.55-.64,5.08-1.09,7.45.57l0,2.28c-.65,1.1-1.3,2.48-2.65,2.52a91.3,91.3,0,0,0-12.89,1.21C679.61,221.9,678.91,221.06,678.44,220.25Z" transform="translate(-445.5 -121.26)"/><path class="cls-11" d="M696.07,199.1l0,3.38c-5.51,3.72-11.57,3.06-17.65,2.2v-3.36c1.64-1.37,3.9.3,5.53-1.12h0C687.91,199.33,692,199.67,696.07,199.1Z" transform="translate(-445.5 -121.26)"/><path class="cls-12" d="M693.94,173.59l2.17,0q0,3.32,0,6.63c-1.56-2.13-3.18-3.77-6.21-2.3s-6.2-2.1-9.29.11c-.37.51-.74.49-1.11,0q0-1.63-.09-3.26c1.48-2,3.12-.38,4.37.11A10,10,0,0,0,693.94,173.59Z" transform="translate(-445.5 -121.26)"/><path class="cls-13" d="M678.42,230.22c5,5.85,11.77,2.36,17.7,3.29q.08.52.13,1a28.39,28.39,0,0,1-18,0Q678.32,232.38,678.42,230.22Z" transform="translate(-445.5 -121.26)"/><path class="cls-14" d="M678.41,225.76c4.44.19,8.86-2.64,14.51.38L678.4,228Q678.41,226.86,678.41,225.76Z" transform="translate(-445.5 -121.26)"/><path class="cls-3" d="M673.81,249.15c7.21-.06,14.41-.13,21.62-.16,1.43,0,3-.35,4,1.22a35.48,35.48,0,0,0-11.07-.06,1.43,1.43,0,0,1-2.19,0c-3.64-.45-7.28-.72-10.9.23Z" transform="translate(-445.5 -121.26)"/><path class="cls-15" d="M678.44,220.25c6,.17,12.08,1.16,17.62-2.22q0,1.08,0,2.17a3.05,3.05,0,0,1-1.08,1.1c-5.61-.68-11,1.33-16.62,1.13Q678.42,221.33,678.44,220.25Z" transform="translate(-445.5 -121.26)"/><path class="cls-16" d="M678.41,204.68c6-.06,12,.41,17.65-2.2q0,1.08,0,2.16-.52.82-1.09,0c-5.49.94-11,1.75-16.57,1.05A3.59,3.59,0,0,1,678.41,204.68Z" transform="translate(-445.5 -121.26)"/><path class="cls-17" d="M679.48,178h1.11c-.68,3.72.87,5.72,4.69,6.66h-6.89C677.88,182.32,679,180.22,679.48,178Z" transform="translate(-445.5 -121.26)"/><path class="cls-18" d="M756.06,245.74l-1.13,0c.69-2.74-.08-5.29-1-7.81C759,239.29,759.16,242.06,756.06,245.74Z" transform="translate(-445.5 -121.26)"/><path class="cls-19" d="M688.35,215.74c-3.1,2.24-6.64.64-9.94,1.12q0-1.09,0-2.17c3.31,1.55,6.62-.8,9.93,0q.42.36.28.73T688.35,215.74Z" transform="translate(-445.5 -121.26)"/><path class="cls-20" d="M696.07,199.1c-3.9,2.07-8.12.71-12.18,1.12,3.81-2,8.58-.51,12.17-3.31Q696.07,198,696.07,199.1Z" transform="translate(-445.5 -121.26)"/><path class="cls-21" d="M676.15,156.92a2.26,2.26,0,0,1,1.08,2.22c-3.44,1.83-1.81,5.09-2.2,7.78q.48.42.3.82t-.35.39C673.28,164.18,672.91,160.36,676.15,156.92Z" transform="translate(-445.5 -121.26)"/><path class="cls-22" d="M639.5,248q0,.51,0,1l-7.73,0a1.4,1.4,0,0,1,0-2.15C634.38,246.93,637.09,246.42,639.5,248Z" transform="translate(-445.5 -121.26)"/><path class="cls-23" d="M688.35,215.74q0-.54,0-1.09c1.56-1.84,3.68-.83,5.55-1.08.62.6,1.7.24,2.2,1.08a4.14,4.14,0,0,1,0,1.09Z" transform="translate(-445.5 -121.26)"/><path class="cls-24" d="M696.11,232.41c-2-.15-4.18.38-6.39-.72,1.71-2.28,3.67-1.16,5.3-1.5.36-.56.71-.53,1.06,0Z" transform="translate(-445.5 -121.26)"/><path class="cls-25" d="M617.31,243.5c3.37,0,6.1,1.78,8.87,3.38A9.55,9.55,0,0,1,617.31,243.5Z" transform="translate(-445.5 -121.26)"/><path class="cls-26" d="M696.11,214.65a2.34,2.34,0,0,1-2.2-1.08c2.21-2.74.64-5.94,1.1-8.89l1.09,0Q696.1,209.65,696.11,214.65Z" transform="translate(-445.5 -121.26)"/><path class="cls-14" d="M678.43,209.13c1.61,1.74,3.93-.58,6,1.2-2,1.77-4.18.59-6.05,1Q678.41,210.22,678.43,209.13Z" transform="translate(-445.5 -121.26)"/><path class="cls-27" d="M696.08,230.2H695q0-4.45,0-8.9l1.08-1.1Q696.08,225.19,696.08,230.2Z" transform="translate(-445.5 -121.26)"/><path class="cls-28" d="M695,193.5v-9.92c.33-.47.69-.46,1.06,0l0,10C695.71,194,695.34,194,695,193.5Z" transform="translate(-445.5 -121.26)"/><path class="cls-29" d="M679.49,190.25l0,8.87c-.34.52-.68.5-1,0l0-8.92A.62.62,0,0,1,679.49,190.25Z" transform="translate(-445.5 -121.26)"/><path class="cls-30" d="M695,193.5l1.11.06a4.36,4.36,0,0,1,0,1.09h-7.59l0-1.16Z" transform="translate(-445.5 -121.26)"/><path class="cls-31" d="M675,168.13l0-1.21c1.45,1.64,3.09,3.17,3.33,5.54C676.6,171.51,675.1,170.36,675,168.13Z" transform="translate(-445.5 -121.26)"/><path class="cls-32" d="M696.07,183.54l-1.06,0h-5.37l0-1.13h6.48A3.75,3.75,0,0,1,696.07,183.54Z" transform="translate(-445.5 -121.26)"/><path class="cls-33" d="M631.76,246.87q0,1.08,0,2.15c-2-.41-4-.64-5.61-2.15Z" transform="translate(-445.5 -121.26)"/><path class="cls-34" d="M679.49,190.25l-1.08,0q0-1.08,0-2.16a3.64,3.64,0,0,0,4.37,0q.58.36.39.71c-.13.23-.26.35-.39.35C682,190.4,680.71,190.18,679.49,190.25Z" transform="translate(-445.5 -121.26)"/><path class="cls-35" d="M678.44,199.13h1c1.19,1.59,2.92.93,4.46,1.09-1.54,1.85-3.66.86-5.53,1.12Z" transform="translate(-445.5 -121.26)"/><path class="cls-36" d="M685,151.42c-1.27,1.08-2.35,2.86-4.36,1.16A5.37,5.37,0,0,1,685,151.42Z" transform="translate(-445.5 -121.26)"/><path class="cls-37" d="M688.46,587.58a2.33,2.33,0,0,1-2.32-1.06q0-168.19,0-336.39h2.19q0,163.72,0,327.44C688.36,580.93,688.42,584.25,688.46,587.58Z" transform="translate(-445.5 -121.26)"/><path class="cls-38" d="M689.44,247.92H640.63c.91-1.19,2.23-1.09,3.51-1.09h41.79C687.21,246.84,688.52,246.73,689.44,247.92Z" transform="translate(-445.5 -121.26)"/><path class="cls-39" d="M705,248l-8.85,0c1.82-1.87,4.15-1,6.24-1,8-.1,16.07-.07,24.11,0,1.75,0,3.7-.6,5.14,1.07A133.69,133.69,0,0,1,705,248Z" transform="translate(-445.5 -121.26)"/><path class="cls-40" d="M705,248l26.64,0,3.33,0q.57.32.39.67c-.12.24-.24.35-.36.35l-30,0Q705,248.49,705,248Z" transform="translate(-445.5 -121.26)"/><path class="cls-41" d="M735,249q0-.51,0-1c2.61-1.17,5.21-2,7.81,0C740.41,250.05,737.6,248.69,735,249Z" transform="translate(-445.5 -121.26)"/><path class="cls-30" d="M682.8,189.09q0-.53,0-1.07h7.58l0,1.07Z" transform="translate(-445.5 -121.26)"/><path class="cls-42" d="M690.54,154.71c2.45-.24,1.91,2.55,3.36,3.32q0,1.11,0,2.22c-.82,2.57-.24,5.53-2.22,7.77.1,1.78-1.47,2.78-2,4.24-1.44,3.84-3,2.58-4.65.18q-.6-.36-.4-.72c.13-.24.27-.36.4-.36-3.31-3-5.73-6.38-3.83-11.23a11.77,11.77,0,0,0-1.71-1c-.25-2.48.89-3.58,3.35-3.33A42,42,0,0,0,690.54,154.71Z" transform="translate(-445.5 -121.26)"/><path class="cls-8" d="M691.69,168c.4-2.69-1.25-6,2.22-7.77C695.44,163.49,696.5,166.6,691.69,168Z" transform="translate(-445.5 -121.26)"/><path class="cls-43" d="M697.22,160.26q0,3.86,0,7.71A6.31,6.31,0,0,1,697.22,160.26Z" transform="translate(-445.5 -121.26)"/><path class="cls-44" d="M679.92,169c-2.05-1-2.19-2.26-2.39-4.16C680,165.77,679.54,167.28,679.92,169Z" transform="translate(-445.5 -121.26)"/><path class="cls-45" d="M685,171.37q0,.54,0,1.07c-1.38,0-2.8.15-3.77-1.31C682.66,169.85,683.77,171.75,685,171.37Z" transform="translate(-445.5 -121.26)"/><path class="cls-46" d="M690.54,154.71c-2.42,1.4-4.93,2.22-7.71,1.1C685.23,154.26,687.92,154.76,690.54,154.71Z" transform="translate(-445.5 -121.26)"/><path class="cls-47" d="M678.26,166.9s-2.71-9,6.19-11.24,12.23,1.56,12.77,6.87-.7,10.48-12.92,9.61" transform="translate(-445.5 -121.26)"/><polyline class="cls-48" points="332.35 392.4 58.86 149.44 312.23 426.54"/><line class="cls-49" x1="318.61" y1="391.43" x2="61.38" y2="152.2"/><line class="cls-49" x1="68.02" y1="158.88" x2="308.62" y2="403.92"/><polygon class="cls-48" points="320 422.51 312.23 426.54 310.29 418.21 302.94 419.19 304.6 409.89 298.22 404.89 306.82 401.56 306.13 391.85 314.87 394.76 320 386.72 324.86 394.63 332.35 392.4 332.35 401.7 339.01 404.2 333.32 411.55 336.65 417.38 329.02 418.49 326.8 428.2 320 422.51"/></g><g id="Layer_3" data-name="Layer 3"><path class="cls-50" d="M927,122.76V328.6a313.88,313.88,0,0,1-2.28,38c-.11.93-.24,1.86-.36,2.79,0,.2,0,.4-.08.59-.09.74-.19,1.47-.31,2.2-.46,3.37-1,6.69-1.6,10-.07.44-.15.87-.23,1.31-.16.8-.29,1.6-.45,2.4s-.34,1.79-.51,2.69l-.45,2.22-.24,1.15c-.15.71-.3,1.44-.46,2.15-.54,2.37-1.07,4.71-1.61,7l-.58,2.32-.52,2q-1.53,5.88-3.27,11.61c-.29,1-.59,1.94-.9,2.92l-.6,1.88c-.2.63-.4,1.24-.61,1.86-.37,1.09-.73,2.17-1.1,3.25s-.68,2-1,3c-.47,1.28-.93,2.56-1.39,3.81-.36,1-.73,2-1.11,3l-.19.5c-.43,1.14-.87,2.25-1.32,3.36s-.87,2.17-1.31,3.2c0,.15-.12.28-.18.42-.4,1-.8,2-1.25,3s-.76,1.75-1.13,2.62l-.66,1.49c-.48,1.07-1,2.11-1.44,3.15s-.9,2-1.36,2.93l-1,2.12c-.29.63-.6,1.25-.91,1.87-.63,1.33-1.31,2.64-2,4q-2.52,5-5.19,9.77l-2,3.57-.12.21c-1.4,2.44-2.82,4.86-4.28,7.24a.41.41,0,0,1,0,.09c-.71,1.2-1.46,2.4-2.18,3.54-.11.16-.2.32-.3.47s-.31.5-.47.74c-.4.64-.81,1.28-1.22,1.92l-.65,1c-.65,1-1.31,2-2,3l-.13.18c-.65,1-1.31,2-2,3l-.45.67q-2.25,3.29-4.54,6.46l-.31.43c-.8,1.07-1.54,2.14-2.31,3.19s-1.66,2.23-2.5,3.32c-1.52,2-3.06,4-4.61,6l-.81,1q-1.09,1.39-2.22,2.76L854,526.61l-.57.69c-.4.47-.79.93-1.2,1.39a4.16,4.16,0,0,1-.27.32c-.31.37-.62.73-.94,1.09-1.23,1.44-2.46,2.87-3.73,4.29-.65.75-1.32,1.5-2,2.24s-1.52,1.69-2.29,2.51-1.47,1.6-2.22,2.4q-3,3.2-5.93,6.24-2.76,2.82-5.53,5.59l-.83.82c-.64.64-1.29,1.27-1.93,1.89-.92.89-1.85,1.78-2.79,2.66l-2.28,2.12c-.68.65-1.36,1.28-2,1.91q-14.52,13.32-30.16,25.31c-1,.77-2,1.52-3,2.28q-9.86,7.43-20.1,14.31-1.56,1.05-3.12,2.07c-1,.65-2,1.29-3,1.92a0,0,0,0,1,0,0l-.18.12h0l-2.24,1.45c-.86.55-1.72,1.1-2.57,1.6l-1.74,1.09c-3.67,2.31-7.25,4.48-10.73,6.54l-2.41,1.4-2.36,1.37-2.33,1.34-2.23,1.29c-8.34,4.68-15.9,8.59-22.38,11.76l-1.6.8c-10.64,5.15-18.12,8.22-21,9.35l-.42.17-.61.24-.14,0h-.08l-.23-.09-.21,0-1.07-.42-.54-.23c-.87-.34-2-.8-3.37-1.38l-.46-.18c-1.76-.8-3.89-1.67-6.33-2.77l-1.39-.61a442.25,442.25,0,0,1-39.75-20.6c-.8-.44-1.6-.92-2.35-1.38q-7.23-4.26-14.29-8.78-5.26-3.36-10.42-6.85c-.75-.51-1.49-1-2.23-1.53-.57-.38-1.13-.76-1.69-1.16q-8.21-5.66-16.15-11.66l-2.63-2-.61-.47c-.77-.6-1.55-1.2-2.33-1.82l-2.37-1.86-.44-.35c-6.19-4.92-12.43-10.15-18.64-15.69L558.08,566q-2.31-2.05-4.59-4.2l-1.67-1.57L550,558.54l-2-1.94c-1.12-1.07-2.23-2.17-3.33-3.27-.85-.79-1.69-1.66-2.52-2.5l-.24-.26c-.84-.83-1.67-1.67-2.5-2.51l-.34-.36c-.55-.56-1.09-1.12-1.63-1.69l-1-1.06-1-1-.13-.15-2.1-2.25c-1.12-1.2-2.24-2.41-3.34-3.64h0c-1.11-1.23-2.21-2.46-3.31-3.71l-1.31-1.5-.74-.84c-.57-.65-1.12-1.29-1.66-1.94q-1-1.2-2-2.4-4.28-5.1-8.39-10.48c-.76-1-1.5-1.93-2.24-2.92-1.89-2.47-3.73-5-5.57-7.55-.55-.8-1.12-1.59-1.68-2.39-.13-.16-.24-.34-.36-.5-.59-.86-1.19-1.7-1.77-2.56l-1.54-2.28a1,1,0,0,1-.12-.17c-.39-.57-.77-1.14-1.15-1.72s-.79-1.17-1.18-1.77l-1-1.54a1,1,0,0,0-.15-.24l-2.22-3.48-.22-.36-.88-1.43-1.22-2-.32-.53c-.17-.27-.34-.56-.51-.85-.46-.76-.94-1.56-1.38-2.33l-.64-1.1c-.5-.84-1-1.67-1.49-2.57q-4.61-8-8.77-16.46c-.35-.69-.69-1.38-1-2.09-.22-.44-.44-.88-.65-1.35-.43-.87-.8-1.74-1.25-2.63a25.91,25.91,0,0,1-1.15-2.47l-.23-.48c-.27-.58-.53-1.16-.81-1.75l-.26-.57c-.27-.59-.52-1.19-.8-1.78q-1.44-3.25-2.79-6.57c-.42-1-.8-2-1.23-3.08-.1-.25-.21-.52-.31-.79-.4-1-.8-2-1.16-3s-.69-1.82-1-2.74l-.24-.65c-.17-.44-.33-.91-.49-1.35q-1-2.7-1.9-5.44c-.21-.6-.4-1.2-.6-1.8-.26-.8-.51-1.54-.75-2.32-.14-.41-.27-.8-.4-1.22-.25-.8-.49-1.59-.75-2.39-.31-1-.61-2.06-.92-3.11-.19-.64-.39-1.28-.57-1.95-.37-1.29-.74-2.58-1.09-3.89-.19-.68-.37-1.35-.55-2-.13-.5-.27-1-.4-1.51-.32-1.22-.62-2.45-.92-3.7-.18-.7-.34-1.4-.52-2.11-.07-.28-.13-.56-.19-.85-.37-1.55-.72-3.11-1.07-4.69-.26-1.16-.5-2.33-.74-3.5-.13-.71-.29-1.43-.42-2.14s-.32-1.59-.48-2.45a1.86,1.86,0,0,0-.09-.47c-.16-.8-.3-1.64-.45-2.48s-.32-1.84-.48-2.77-.29-1.8-.45-2.71q-.57-3.7-1.07-7.47c-.17-1.23-.33-2.47-.48-3.71A312.7,312.7,0,0,1,447,328.58V122.76Z" transform="translate(-445.5 -121.26)"/></g></svg>